<svg xmlns="http://www.w3.org/2000/svg" xmlns:xlink="http://www.w3.org/1999/xlink" width="69" zoomAndPan="magnify" viewBox="0 0 51.75 70.499998" height="94" preserveAspectRatio="xMidYMid meet" version="1.2"><defs><clipPath id="64ac26f59c"><path d="M 0.1875 0 L 51.28125 0 L 51.28125 51.121094 L 0.1875 51.121094 Z M 0.1875 0 "/></clipPath><clipPath id="c6bc251c3c"><path d="M 15.078125 14.886719 L 36.421875 14.886719 L 36.421875 36.234375 L 15.078125 36.234375 Z M 15.078125 14.886719 "/></clipPath><clipPath id="fcc2c5f757"><path d="M 25.75 14.886719 C 19.855469 14.886719 15.078125 19.664062 15.078125 25.558594 C 15.078125 31.457031 19.855469 36.234375 25.75 36.234375 C 31.644531 36.234375 36.421875 31.457031 36.421875 25.558594 C 36.421875 19.664062 31.644531 14.886719 25.75 14.886719 Z M 25.75 14.886719 "/></clipPath><clipPath id="31dbc4c568"><path d="M 9.738281 14.414062 L 41.761719 14.414062 L 41.761719 39.527344 L 9.738281 39.527344 Z M 9.738281 14.414062 "/></clipPath><clipPath id="cb4035d44e"><path d="M 0.0195312 3 L 9 3 L 9 11 L 0.0195312 11 Z M 0.0195312 3 "/></clipPath><clipPath id="7100b44ce7"><rect x="0" width="34" y="0" height="14"/></clipPath></defs><g id="51025ca295"><g clip-rule="nonzero" clip-path="url(#64ac26f59c)"><path style=" stroke:none;fill-rule:nonzero;fill:#ab080d;fill-opacity:1;" d="M 49.449219 29.558594 C 50.449219 29.558594 51.269531 28.738281 51.269531 27.734375 L 51.269531 23.324219 C 51.269531 22.320312 50.449219 21.5 49.449219 21.5 L 47.554688 21.5 C 46.550781 21.5 45.488281 20.71875 45.195312 19.757812 L 43.578125 15.835938 C 43.105469 14.953125 43.296875 13.648438 44.007812 12.941406 L 45.347656 11.601562 C 46.054688 10.890625 46.054688 9.730469 45.347656 9.019531 L 42.226562 5.902344 C 41.519531 5.191406 40.359375 5.191406 39.648438 5.902344 L 38.308594 7.242188 C 37.597656 7.953125 36.296875 8.144531 35.414062 7.667969 L 31.488281 6.054688 C 30.53125 5.757812 29.746094 4.699219 29.746094 3.695312 L 29.746094 1.800781 C 29.746094 0.796875 28.925781 -0.0234375 27.921875 -0.0234375 L 23.515625 -0.0234375 C 22.511719 -0.0234375 21.691406 0.796875 21.691406 1.800781 L 21.691406 3.695312 C 21.691406 4.699219 20.90625 5.757812 19.949219 6.054688 L 16.027344 7.667969 C 15.140625 8.144531 13.839844 7.953125 13.128906 7.242188 L 11.789062 5.902344 C 11.078125 5.191406 9.917969 5.191406 9.210938 5.902344 L 6.09375 9.019531 C 5.382812 9.730469 5.382812 10.890625 6.09375 11.597656 L 7.433594 12.9375 C 8.144531 13.648438 8.335938 14.953125 7.859375 15.835938 L 6.246094 19.757812 C 5.949219 20.71875 4.886719 21.5 3.882812 21.5 L 1.992188 21.5 C 0.988281 21.5 0.167969 22.320312 0.167969 23.324219 L 0.167969 27.734375 C 0.167969 28.738281 0.988281 29.558594 1.992188 29.558594 L 3.882812 29.558594 C 4.886719 29.558594 5.949219 30.34375 6.246094 31.300781 L 7.859375 35.222656 C 8.335938 36.105469 8.144531 37.410156 7.433594 38.121094 L 6.09375 39.460938 C 5.382812 40.167969 5.382812 41.328125 6.09375 42.039062 L 9.210938 45.15625 C 9.917969 45.867188 11.078125 45.863281 11.789062 45.15625 L 13.128906 43.816406 C 13.839844 43.109375 15.144531 42.914062 16.027344 43.390625 L 19.949219 45.003906 C 20.90625 45.300781 21.691406 46.359375 21.691406 47.363281 L 21.691406 49.257812 C 21.691406 50.261719 22.511719 51.082031 23.515625 51.082031 L 27.925781 51.082031 C 28.925781 51.082031 29.75 50.261719 29.75 49.257812 L 29.75 47.363281 C 29.75 46.359375 30.53125 45.300781 31.492188 45.003906 L 35.414062 43.390625 C 36.296875 42.914062 37.601562 43.105469 38.308594 43.816406 L 39.652344 45.15625 C 40.359375 45.867188 41.519531 45.863281 42.230469 45.15625 L 45.347656 42.039062 C 46.054688 41.328125 46.054688 40.167969 45.347656 39.460938 L 44.007812 38.121094 C 43.296875 37.410156 43.105469 36.105469 43.578125 35.222656 L 45.195312 31.300781 C 45.488281 30.34375 46.550781 29.558594 47.554688 29.558594 Z M 25.71875 36.042969 C 19.914062 36.042969 15.207031 31.335938 15.207031 25.53125 C 15.207031 19.722656 19.914062 15.015625 25.71875 15.015625 C 31.523438 15.015625 36.230469 19.722656 36.230469 25.53125 C 36.230469 31.335938 31.523438 36.042969 25.71875 36.042969 Z M 25.71875 36.042969 "/></g><path style=" stroke:none;fill-rule:nonzero;fill:#ffd600;fill-opacity:1;" d="M 41.691406 14.355469 C 40.695312 15.355469 39.234375 15.609375 38 15.125 L 31.121094 22.003906 C 31.605469 23.238281 31.351562 24.699219 30.351562 25.695312 C 29.351562 26.695312 27.890625 26.953125 26.65625 26.464844 L 29.253906 23.867188 C 29.410156 23.710938 29.410156 23.457031 29.253906 23.300781 L 27.882812 21.929688 C 27.726562 21.773438 27.472656 21.773438 27.316406 21.929688 L 24.71875 24.527344 C 24.230469 23.289062 24.488281 21.832031 25.488281 20.832031 C 26.484375 19.832031 27.945312 19.578125 29.179688 20.0625 L 36.058594 13.183594 C 35.574219 11.949219 35.828125 10.488281 36.828125 9.492188 C 37.828125 8.492188 39.289062 8.234375 40.523438 8.722656 L 37.839844 11.40625 C 37.679688 11.5625 37.679688 11.816406 37.839844 11.976562 L 39.207031 13.34375 C 39.363281 13.503906 39.621094 13.503906 39.777344 13.34375 L 42.460938 10.660156 C 42.949219 11.898438 42.691406 13.355469 41.691406 14.355469 Z M 41.691406 14.355469 "/><path style=" stroke:none;fill-rule:nonzero;fill:#ffd600;fill-opacity:1;" d="M 27.6875 28.863281 C 26.597656 29.957031 25 30.234375 23.652344 29.703125 L 16.136719 37.214844 C 16.671875 38.566406 16.390625 40.160156 15.300781 41.253906 C 14.207031 42.34375 12.613281 42.625 11.261719 42.089844 L 14.101562 39.253906 C 14.273438 39.082031 14.269531 38.804688 14.101562 38.632812 L 12.601562 37.136719 C 12.433594 36.964844 12.152344 36.964844 11.984375 37.136719 L 9.144531 39.972656 C 8.613281 38.625 8.894531 37.027344 9.984375 35.9375 C 11.074219 34.847656 12.671875 34.566406 14.019531 35.097656 L 21.535156 27.585938 C 21 26.234375 21.28125 24.640625 22.371094 23.550781 C 23.464844 22.457031 25.0625 22.179688 26.410156 22.710938 L 23.476562 25.640625 C 23.304688 25.8125 23.304688 26.09375 23.476562 26.261719 L 24.972656 27.757812 C 25.144531 27.929688 25.425781 27.929688 25.59375 27.757812 L 28.527344 24.828125 C 29.058594 26.175781 28.78125 27.773438 27.6875 28.863281 Z M 27.6875 28.863281 "/><g clip-rule="nonzero" clip-path="url(#c6bc251c3c)"><g clip-rule="nonzero" clip-path="url(#fcc2c5f757)"><path style=" stroke:none;fill-rule:nonzero;fill:#ab080d;fill-opacity:1;" d="M 15.078125 14.886719 L 36.421875 14.886719 L 36.421875 36.234375 L 15.078125 36.234375 Z M 15.078125 14.886719 "/></g></g><path style=" stroke:none;fill-rule:nonzero;fill:#fffbec;fill-opacity:1;" d="M 18.136719 32.03125 L 18.351562 32.078125 L 18.78125 32.179688 L 18.992188 32.234375 C 19.132812 32.269531 19.277344 32.304688 19.417969 32.339844 L 19.84375 32.445312 L 20.265625 32.554688 L 20.691406 32.671875 L 20.898438 32.726562 L 21.113281 32.785156 L 21.210938 32.808594 L 21.210938 32.914062 C 21.210938 33.015625 21.214844 33.117188 21.214844 33.21875 L 21.21875 33.519531 C 21.222656 33.621094 21.222656 33.722656 21.222656 33.824219 L 21.226562 34.125 C 21.226562 34.222656 21.226562 34.324219 21.226562 34.425781 L 21.230469 34.730469 L 21.230469 35.03125 L 21.226562 35.335938 L 21.226562 35.554688 L 21.019531 35.476562 L 20.652344 35.335938 L 19.925781 35.046875 L 19.746094 34.972656 L 19.5625 34.902344 L 19.203125 34.753906 L 18.835938 34.605469 C 18.714844 34.554688 18.597656 34.507812 18.476562 34.453125 C 18.355469 34.402344 18.234375 34.355469 18.117188 34.304688 L 18.058594 34.28125 L 18.050781 34.226562 L 17.96875 33.488281 C 17.960938 33.40625 17.953125 33.324219 17.945312 33.242188 L 17.917969 32.996094 L 17.894531 32.75 C 17.886719 32.667969 17.878906 32.585938 17.871094 32.503906 L 17.863281 32.378906 C 17.859375 32.339844 17.855469 32.296875 17.851562 32.257812 C 17.863281 32.292969 17.871094 32.335938 17.878906 32.375 L 17.90625 32.496094 C 17.921875 32.578125 17.941406 32.660156 17.957031 32.742188 L 18.007812 32.980469 L 18.058594 33.222656 C 18.074219 33.308594 18.089844 33.386719 18.105469 33.46875 L 18.152344 33.710938 L 18.203125 33.957031 L 18.234375 34.136719 C 18.339844 34.175781 18.449219 34.210938 18.554688 34.25 C 18.679688 34.292969 18.800781 34.335938 18.921875 34.378906 L 19.292969 34.511719 L 19.660156 34.644531 L 19.847656 34.710938 L 20.03125 34.78125 L 20.765625 35.054688 L 20.921875 35.113281 L 20.921875 34.425781 C 20.921875 34.324219 20.921875 34.222656 20.921875 34.125 L 20.925781 33.824219 C 20.925781 33.722656 20.929688 33.621094 20.929688 33.519531 L 20.933594 33.21875 C 20.933594 33.148438 20.933594 33.082031 20.933594 33.015625 L 20.828125 32.980469 L 20.617188 32.914062 L 20.199219 32.785156 L 19.78125 32.648438 L 19.367188 32.511719 C 19.230469 32.464844 19.089844 32.421875 18.953125 32.375 L 18.742188 32.304688 L 18.328125 32.15625 L 18.121094 32.085938 C 18.050781 32.0625 17.988281 32.039062 17.917969 32.011719 C 17.847656 31.988281 17.777344 31.960938 17.710938 31.9375 C 17.78125 31.953125 17.851562 31.96875 17.921875 31.984375 C 17.996094 32 18.066406 32.015625 18.136719 32.03125 Z M 18.136719 32.03125 "/><path style=" stroke:none;fill-rule:nonzero;fill:#fffbec;fill-opacity:1;" d="M 24.382812 21.324219 C 24.382812 21.324219 24.398438 24.804688 24.121094 24.871094 C 23.839844 24.9375 22.832031 25.050781 22.832031 25.050781 C 22.832031 25.050781 22.964844 23.039062 23.0625 22.359375 C 23.164062 21.6875 23.3125 21.519531 24.382812 21.324219 Z M 24.382812 21.324219 "/><path style=" stroke:none;fill-rule:nonzero;fill:#fffbec;fill-opacity:1;" d="M 23.226562 35.203125 C 23.40625 35.203125 23.550781 35.617188 23.550781 36.132812 C 23.550781 36.652344 23.40625 37.070312 23.226562 37.070312 C 23.042969 37.070312 22.894531 36.652344 22.894531 36.132812 C 22.894531 35.617188 23.042969 35.203125 23.226562 35.203125 Z M 23.226562 35.203125 "/><path style=" stroke:none;fill-rule:nonzero;fill:#fffbec;fill-opacity:1;" d="M 25.523438 21.058594 L 27.105469 20.699219 C 27.320312 20.648438 27.527344 20.808594 27.527344 21.035156 L 27.527344 24.972656 C 27.527344 25.167969 27.359375 25.328125 27.164062 25.320312 L 25.578125 25.226562 C 25.394531 25.214844 25.253906 25.0625 25.253906 24.882812 L 25.253906 21.394531 C 25.253906 21.230469 25.363281 21.09375 25.523438 21.058594 Z M 25.523438 21.058594 "/><path style=" stroke:none;fill-rule:nonzero;fill:#fffbec;fill-opacity:1;" d="M 33.46875 36.886719 L 38.191406 36.410156 C 38.277344 36.402344 38.347656 36.453125 38.382812 36.519531 C 38.398438 36.566406 38.402344 36.613281 38.382812 36.660156 L 38.226562 37.066406 C 38.152344 37.257812 37.976562 37.394531 37.769531 37.421875 L 34.082031 37.882812 C 33.875 37.914062 33.664062 37.816406 33.546875 37.644531 L 33.292969 37.269531 C 33.257812 37.21875 33.242188 37.164062 33.246094 37.113281 C 33.246094 37.101562 33.246094 37.097656 33.25 37.085938 C 33.269531 36.984375 33.351562 36.898438 33.46875 36.886719 Z M 33.46875 36.886719 "/><path style=" stroke:none;fill-rule:nonzero;fill:#fffbec;fill-opacity:1;" d="M 32.5625 35.5625 C 32.566406 35.523438 32.566406 35.488281 32.570312 35.453125 C 32.570312 35.441406 32.570312 35.433594 32.570312 35.421875 L 32.570312 35.402344 L 32.574219 35.390625 C 32.574219 35.382812 32.574219 35.375 32.578125 35.363281 C 32.578125 35.351562 32.578125 35.335938 32.582031 35.324219 C 32.605469 35.234375 32.664062 35.152344 32.742188 35.101562 C 32.78125 35.074219 32.828125 35.054688 32.878906 35.042969 C 32.886719 35.042969 32.898438 35.039062 32.910156 35.039062 C 32.921875 35.039062 32.929688 35.039062 32.945312 35.039062 L 33.003906 35.03125 C 33.578125 34.988281 34.148438 34.941406 34.285156 34.929688 C 34.152344 34.953125 33.582031 35.039062 33.015625 35.128906 L 32.953125 35.140625 C 32.945312 35.140625 32.933594 35.140625 32.925781 35.144531 C 32.914062 35.148438 32.910156 35.148438 32.898438 35.152344 C 32.867188 35.160156 32.835938 35.175781 32.8125 35.195312 C 32.757812 35.238281 32.726562 35.292969 32.714844 35.351562 C 32.710938 35.363281 32.710938 35.367188 32.710938 35.375 C 32.710938 35.378906 32.710938 35.390625 32.710938 35.402344 L 32.710938 35.421875 C 32.710938 35.433594 32.710938 35.441406 32.710938 35.453125 C 32.714844 35.488281 32.714844 35.523438 32.714844 35.5625 C 32.71875 35.585938 32.71875 35.605469 32.71875 35.628906 C 32.742188 35.621094 32.761719 35.617188 32.78125 35.617188 L 39.03125 35.054688 C 39.066406 35.054688 39.101562 35.054688 39.136719 35.0625 C 39.136719 34.996094 39.140625 34.925781 39.144531 34.855469 C 39.144531 34.820312 39.148438 34.789062 39.148438 34.757812 C 39.148438 34.75 39.148438 34.738281 39.148438 34.734375 C 39.148438 34.726562 39.148438 34.722656 39.144531 34.714844 C 39.144531 34.707031 39.144531 34.703125 39.140625 34.695312 C 39.140625 34.6875 39.136719 34.683594 39.136719 34.675781 C 39.117188 34.628906 39.078125 34.582031 39.023438 34.558594 C 39 34.550781 38.96875 34.542969 38.941406 34.542969 L 38.929688 34.542969 L 38.914062 34.546875 L 38.890625 34.546875 C 38.871094 34.546875 38.855469 34.546875 38.835938 34.550781 C 38.765625 34.550781 38.699219 34.554688 38.632812 34.554688 C 38.5 34.5625 38.382812 34.566406 38.273438 34.570312 C 38.066406 34.582031 37.921875 34.585938 37.921875 34.585938 C 37.921875 34.585938 38.0625 34.570312 38.273438 34.539062 C 38.378906 34.527344 38.5 34.511719 38.628906 34.492188 C 38.695312 34.488281 38.761719 34.476562 38.832031 34.46875 C 38.847656 34.464844 38.867188 34.464844 38.882812 34.460938 L 38.910156 34.457031 L 38.921875 34.453125 L 38.933594 34.453125 C 38.976562 34.453125 39.019531 34.453125 39.058594 34.46875 C 39.136719 34.492188 39.207031 34.554688 39.242188 34.632812 C 39.25 34.640625 39.25 34.652344 39.253906 34.660156 C 39.257812 34.667969 39.261719 34.679688 39.265625 34.691406 C 39.269531 34.703125 39.269531 34.714844 39.269531 34.722656 C 39.269531 34.734375 39.273438 34.742188 39.273438 34.75 C 39.277344 34.789062 39.277344 34.820312 39.277344 34.855469 C 39.28125 34.964844 39.285156 35.074219 39.292969 35.164062 C 39.332031 35.214844 39.359375 35.28125 39.359375 35.351562 L 39.359375 35.648438 C 39.359375 35.800781 39.246094 35.929688 39.09375 35.945312 L 37.039062 36.167969 C 36.972656 36.175781 36.914062 36.203125 36.867188 36.25 L 36.773438 36.335938 C 36.722656 36.382812 36.664062 36.410156 36.597656 36.417969 L 35.527344 36.519531 C 35.453125 36.527344 35.378906 36.507812 35.320312 36.460938 L 35.273438 36.429688 C 35.214844 36.382812 35.140625 36.359375 35.0625 36.371094 L 32.839844 36.605469 C 32.664062 36.625 32.511719 36.488281 32.511719 36.308594 L 32.511719 35.917969 C 32.511719 35.855469 32.527344 35.800781 32.558594 35.753906 C 32.558594 35.691406 32.5625 35.628906 32.5625 35.5625 Z M 32.5625 35.5625 "/><g clip-rule="nonzero" clip-path="url(#31dbc4c568)"><path style=" stroke:none;fill-rule:nonzero;fill:#fffbec;fill-opacity:1;" d="M 10.046875 18.289062 L 21.421875 14.527344 C 21.511719 14.460938 21.617188 14.421875 21.734375 14.429688 C 21.746094 14.429688 22.414062 14.484375 23.355469 14.5625 C 25.28125 14.71875 28.324219 14.964844 29.085938 15.039062 C 29.800781 15.109375 31.214844 15.269531 32.578125 15.535156 C 33.382812 15.691406 34.054688 15.867188 34.574219 16.054688 C 35.1875 16.269531 35.59375 16.503906 35.8125 16.765625 C 36.605469 16.867188 37.191406 16.949219 37.359375 16.972656 L 37.429688 16.984375 C 38.070312 17.082031 38.800781 17.191406 39.167969 17.8125 C 39.488281 18.347656 39.917969 19.511719 40 19.730469 C 40.121094 19.878906 40.136719 20.109375 40.039062 20.417969 C 39.996094 20.550781 39.941406 20.675781 39.902344 20.746094 C 40.367188 21.792969 41.300781 25.980469 41.34375 26.160156 C 41.34375 26.164062 41.34375 26.164062 41.34375 26.164062 C 41.34375 26.167969 41.34375 26.171875 41.34375 26.175781 C 41.34375 26.175781 41.347656 26.179688 41.347656 26.183594 C 41.347656 26.1875 41.347656 26.1875 41.347656 26.191406 C 41.347656 26.195312 41.347656 26.195312 41.347656 26.199219 L 41.347656 28.640625 C 41.496094 28.699219 41.652344 28.832031 41.652344 29.019531 L 41.652344 30.457031 C 41.652344 31 41.363281 31.179688 41.066406 31.226562 L 41.066406 31.460938 C 41.234375 31.496094 41.394531 31.585938 41.523438 31.71875 C 41.6875 31.890625 41.78125 32.117188 41.78125 32.339844 L 41.78125 33.992188 C 41.78125 34.65625 41.707031 35.535156 41.648438 36.238281 C 41.613281 36.648438 41.578125 37.003906 41.578125 37.160156 C 41.578125 37.226562 41.539062 37.289062 41.472656 37.3125 C 41.347656 37.359375 41.230469 37.402344 41.109375 37.4375 C 39.835938 37.878906 38.75 38.007812 37.933594 38.105469 C 37.65625 38.136719 37.421875 38.164062 37.207031 38.199219 C 36.796875 38.269531 35.886719 38.363281 34.921875 38.464844 C 33.929688 38.570312 32.578125 38.714844 32.421875 38.773438 C 32.222656 38.859375 31.257812 38.929688 30.699219 38.96875 C 30.132812 39.003906 29.46875 39.035156 29.035156 39.035156 C 28.917969 39.035156 28.816406 39.035156 28.738281 39.027344 C 28.226562 38.992188 27.882812 38.847656 27.734375 38.78125 C 27.550781 38.847656 27.0625 39.007812 26.664062 38.960938 C 26.296875 38.917969 25.722656 38.683594 25.421875 38.558594 C 25.355469 39.171875 24.839844 39.472656 23.765625 39.472656 L 23.761719 39.472656 C 22.785156 39.46875 22.046875 37.347656 22.046875 36.636719 C 22.042969 36.632812 22.035156 36.632812 22.027344 36.628906 L 17.90625 34.8125 C 17.785156 35.324219 17.605469 35.652344 17.398438 35.652344 C 17.355469 35.652344 17.320312 35.640625 17.285156 35.617188 L 16.796875 35.476562 L 16.792969 35.457031 C 16.546875 35.347656 16.34375 34.773438 16.269531 34.003906 C 16.121094 34.019531 15.875 33.921875 15.320312 33.671875 C 15.195312 33.621094 15.082031 33.570312 15.011719 33.539062 C 14.945312 33.515625 14.90625 33.453125 14.90625 33.382812 C 14.910156 33.15625 14.910156 32.980469 14.90625 32.875 L 12.71875 32.179688 L 12.71875 32.570312 L 12.726562 32.574219 C 12.722656 32.582031 12.71875 32.589844 12.71875 32.597656 L 12.71875 33.355469 C 12.71875 33.398438 12.675781 33.429688 12.632812 33.417969 L 12.316406 33.324219 C 12.269531 33.355469 12.21875 33.371094 12.167969 33.371094 C 12.128906 33.371094 12.09375 33.359375 12.054688 33.34375 L 11.570312 33.238281 L 11.566406 33.222656 C 11.429688 33.179688 11.304688 33.023438 11.210938 32.796875 L 10.90625 32.730469 L 10.902344 32.71875 C 10.652344 32.636719 10.464844 32.105469 10.464844 31.460938 C 10.464844 31.328125 10.46875 31.207031 10.484375 31.089844 L 10.164062 31.089844 L 10.164062 29.730469 L 9.867188 29.703125 C 9.785156 29.695312 9.71875 29.625 9.71875 29.539062 C 9.71875 29.539062 9.9375 18.296875 10.046875 18.289062 Z M 39.921875 21.828125 C 39.90625 21.769531 39.890625 21.714844 39.871094 21.660156 C 39.761719 21.285156 39.65625 20.984375 39.574219 20.820312 C 39.546875 20.769531 39.550781 20.710938 39.578125 20.664062 C 39.714844 20.417969 39.8125 20.078125 39.757812 19.964844 C 37.925781 19.488281 33.578125 19.113281 30.96875 18.882812 C 30.003906 18.800781 29.242188 18.734375 28.914062 18.691406 C 28.765625 18.671875 28.5 18.683594 28.035156 18.765625 C 28.222656 18.941406 28.339844 19.210938 28.339844 19.476562 C 28.339844 19.546875 28.347656 19.824219 28.359375 20.222656 C 28.367188 20.46875 28.375 20.765625 28.386719 21.089844 C 28.4375 22.703125 28.515625 25.019531 28.535156 25.632812 L 40.972656 26.023438 C 40.820312 25.351562 40.320312 23.1875 39.921875 21.828125 Z M 28.539062 25.960938 L 28.539062 28.917969 L 29.304688 28.917969 L 29.164062 25.984375 Z M 41.015625 26.355469 L 29.28125 25.984375 L 29.464844 28.332031 L 41.015625 28.332031 Z M 35.527344 29.214844 L 31.449219 29.296875 L 35.480469 29.382812 C 35.464844 29.457031 35.453125 29.535156 35.453125 29.613281 C 35.453125 29.6875 35.460938 29.753906 35.472656 29.820312 L 31.464844 29.902344 L 35.515625 29.984375 C 35.539062 30.046875 35.5625 30.105469 35.589844 30.160156 L 31.792969 30.246094 L 35.71875 30.328125 C 35.832031 30.441406 35.96875 30.507812 36.117188 30.507812 C 36.28125 30.507812 36.4375 30.425781 36.550781 30.285156 L 39.5625 30.199219 L 36.660156 30.113281 C 36.683594 30.078125 36.699219 30.03125 36.714844 29.988281 L 39.683594 29.902344 L 36.757812 29.816406 C 36.769531 29.75 36.773438 29.683594 36.773438 29.613281 C 36.773438 29.535156 36.769531 29.457031 36.753906 29.382812 L 39.980469 29.296875 L 36.703125 29.214844 C 36.683594 29.15625 36.652344 29.101562 36.625 29.050781 L 40.078125 28.964844 L 36.496094 28.878906 L 36.496094 28.890625 C 36.386719 28.785156 36.257812 28.726562 36.117188 28.726562 C 35.976562 28.726562 35.847656 28.78125 35.738281 28.882812 L 31.144531 29.035156 L 35.605469 29.054688 C 35.574219 29.101562 35.550781 29.15625 35.527344 29.214844 Z M 27.914062 34.074219 C 27.921875 34.078125 27.929688 34.082031 27.9375 34.085938 C 27.949219 34.089844 27.96875 34.089844 27.984375 34.097656 C 28 34.101562 28.015625 34.105469 28.03125 34.105469 C 28.050781 34.113281 28.066406 34.117188 28.082031 34.125 C 28.089844 34.125 28.09375 34.125 28.101562 34.125 C 28.101562 34.125 28.109375 34.125 28.117188 34.128906 C 28.125 34.128906 28.136719 34.132812 28.144531 34.132812 C 28.164062 34.136719 28.1875 34.140625 28.207031 34.144531 C 28.230469 34.148438 28.25 34.152344 28.273438 34.152344 C 28.300781 34.160156 28.320312 34.160156 28.347656 34.164062 C 28.371094 34.167969 28.398438 34.171875 28.421875 34.171875 C 28.4375 34.171875 28.449219 34.175781 28.460938 34.175781 C 28.472656 34.175781 28.488281 34.179688 28.5 34.179688 C 28.527344 34.183594 28.554688 34.183594 28.585938 34.1875 C 28.640625 34.1875 28.699219 34.1875 28.757812 34.191406 C 28.878906 34.191406 29.007812 34.191406 29.140625 34.1875 C 29.207031 34.183594 29.273438 34.179688 29.34375 34.175781 C 29.378906 34.175781 29.414062 34.171875 29.449219 34.171875 C 29.484375 34.171875 29.519531 34.171875 29.554688 34.171875 C 29.695312 34.164062 29.835938 34.160156 29.980469 34.152344 C 31.046875 34.113281 32.109375 34.074219 32.25 34.070312 C 32.261719 34.070312 32.265625 34.070312 32.265625 34.070312 C 32.265625 34.070312 31.128906 34.183594 29.988281 34.296875 C 29.847656 34.308594 29.703125 34.324219 29.566406 34.339844 C 29.53125 34.339844 29.496094 34.34375 29.460938 34.347656 C 29.425781 34.355469 29.390625 34.355469 29.355469 34.359375 C 29.289062 34.367188 29.21875 34.375 29.152344 34.382812 C 29.015625 34.394531 28.886719 34.402344 28.761719 34.410156 C 28.703125 34.414062 28.636719 34.414062 28.578125 34.417969 C 28.550781 34.417969 28.519531 34.417969 28.492188 34.414062 C 28.476562 34.414062 28.464844 34.414062 28.449219 34.414062 C 28.4375 34.414062 28.417969 34.414062 28.40625 34.414062 C 28.378906 34.414062 28.351562 34.410156 28.324219 34.410156 C 28.300781 34.40625 28.273438 34.40625 28.25 34.402344 C 28.222656 34.402344 28.199219 34.402344 28.171875 34.398438 C 28.152344 34.394531 28.125 34.390625 28.101562 34.390625 C 28.089844 34.390625 28.082031 34.386719 28.066406 34.386719 C 28.066406 34.386719 28.058594 34.386719 28.054688 34.382812 C 28.050781 34.382812 28.042969 34.382812 28.035156 34.378906 C 28.019531 34.375 27.996094 34.375 27.976562 34.371094 C 27.957031 34.367188 27.9375 34.363281 27.921875 34.359375 C 27.917969 34.359375 27.917969 34.359375 27.914062 34.355469 L 27.914062 37.304688 C 27.921875 37.308594 27.933594 37.3125 27.941406 37.3125 C 27.949219 37.316406 27.957031 37.316406 27.964844 37.316406 C 27.972656 37.320312 27.980469 37.320312 27.988281 37.324219 C 28.003906 37.328125 28.023438 37.332031 28.042969 37.335938 C 28.0625 37.339844 28.082031 37.34375 28.101562 37.347656 C 28.113281 37.347656 28.125 37.351562 28.136719 37.351562 C 28.148438 37.351562 28.15625 37.351562 28.167969 37.355469 C 28.191406 37.359375 28.214844 37.363281 28.238281 37.367188 C 28.335938 37.375 28.453125 37.382812 28.574219 37.382812 C 28.699219 37.382812 28.835938 37.382812 28.976562 37.382812 C 29.117188 37.375 29.269531 37.371094 29.429688 37.363281 C 29.507812 37.359375 29.585938 37.355469 29.664062 37.351562 C 29.707031 37.351562 29.75 37.351562 29.789062 37.347656 C 29.832031 37.347656 29.871094 37.34375 29.914062 37.339844 C 29.996094 37.335938 30.078125 37.332031 30.160156 37.328125 C 30.242188 37.320312 30.328125 37.316406 30.410156 37.308594 C 30.578125 37.296875 30.746094 37.285156 30.910156 37.273438 C 31.074219 37.261719 31.234375 37.25 31.390625 37.234375 C 31.703125 37.210938 31.996094 37.1875 32.246094 37.164062 C 32.625 37.136719 32.90625 37.109375 33.023438 37.101562 C 32.90625 37.113281 32.625 37.152344 32.25 37.195312 C 32 37.226562 31.710938 37.261719 31.394531 37.296875 C 31.242188 37.316406 31.082031 37.332031 30.914062 37.351562 C 30.75 37.371094 30.582031 37.390625 30.417969 37.40625 C 30.332031 37.417969 30.25 37.425781 30.167969 37.433594 C 30.082031 37.441406 30 37.449219 29.917969 37.457031 C 29.878906 37.460938 29.835938 37.464844 29.796875 37.46875 C 29.753906 37.472656 29.714844 37.476562 29.675781 37.480469 C 29.59375 37.484375 29.515625 37.492188 29.433594 37.5 C 29.28125 37.511719 29.128906 37.523438 28.980469 37.535156 C 28.839844 37.542969 28.703125 37.550781 28.574219 37.550781 C 28.449219 37.550781 28.328125 37.550781 28.222656 37.542969 C 28.199219 37.539062 28.171875 37.539062 28.148438 37.535156 C 28.136719 37.535156 28.125 37.535156 28.113281 37.535156 C 28.101562 37.535156 28.089844 37.53125 28.078125 37.53125 C 28.054688 37.527344 28.035156 37.523438 28.011719 37.519531 C 27.988281 37.515625 27.96875 37.515625 27.949219 37.511719 C 27.941406 37.507812 27.933594 37.507812 27.921875 37.503906 C 27.921875 37.503906 27.917969 37.503906 27.914062 37.5 L 27.914062 38.496094 C 28.046875 38.558594 28.339844 38.667969 28.761719 38.699219 C 29.042969 38.71875 29.832031 38.695312 30.671875 38.640625 C 31.722656 38.570312 32.214844 38.5 32.289062 38.46875 C 32.449219 38.398438 33.242188 38.3125 34.890625 38.136719 C 35.804688 38.042969 36.753906 37.945312 37.15625 37.875 C 37.371094 37.839844 37.617188 37.8125 37.894531 37.777344 C 38.691406 37.683594 39.765625 37.550781 41.003906 37.132812 C 41.085938 37.101562 41.167969 37.074219 41.253906 37.042969 C 41.265625 36.855469 41.285156 36.566406 41.316406 36.210938 C 41.316406 36.203125 41.320312 36.195312 41.320312 36.1875 L 38.566406 36.453125 L 41.335938 35.996094 C 41.394531 35.335938 41.453125 34.574219 41.453125 33.992188 L 41.453125 33.515625 L 39.613281 33.425781 L 41.453125 33.335938 L 41.453125 32.339844 C 41.453125 32.046875 41.183594 31.773438 40.902344 31.773438 C 40.832031 31.773438 40.769531 31.726562 40.746094 31.660156 L 39.777344 31.660156 C 39.839844 31.582031 39.898438 31.476562 39.964844 31.34375 C 39.976562 31.320312 39.984375 31.292969 39.996094 31.269531 C 40.023438 31.210938 40.050781 31.144531 40.078125 31.070312 L 40.738281 31.070312 C 40.738281 30.980469 40.8125 30.90625 40.902344 30.90625 C 41.210938 30.90625 41.324219 30.785156 41.324219 30.457031 L 41.324219 29.023438 C 41.3125 28.992188 41.21875 28.9375 41.179688 28.933594 C 41.101562 28.933594 41.035156 28.878906 41.019531 28.804688 C 40.511719 29.042969 40.261719 30.363281 40.03125 30.980469 C 39.996094 31.078125 39.960938 31.160156 39.929688 31.238281 C 39.917969 31.261719 39.902344 31.285156 39.894531 31.3125 C 39.746094 31.625 39.613281 31.761719 39.445312 31.808594 C 39.394531 31.820312 39.339844 31.828125 39.28125 31.828125 L 32.035156 31.828125 C 31.6875 31.828125 31.457031 31.640625 31.246094 31.316406 C 31.148438 31.3125 31.003906 31.304688 30.828125 31.296875 C 30.667969 31.289062 30.480469 31.28125 30.28125 31.273438 C 30.257812 31.269531 30.230469 31.269531 30.207031 31.269531 L 30.195312 31.269531 L 30.183594 31.265625 L 30.167969 31.265625 L 30.148438 31.261719 L 30.136719 31.261719 L 30.125 31.257812 C 30.109375 31.257812 30.09375 31.257812 30.078125 31.253906 L 30.0625 31.25 L 30.054688 31.246094 L 30.035156 31.242188 C 30 31.234375 29.976562 31.222656 29.949219 31.210938 C 29.890625 31.183594 29.839844 31.148438 29.792969 31.109375 C 29.75 31.070312 29.707031 31.027344 29.671875 30.980469 C 29.605469 30.882812 29.5625 30.777344 29.53125 30.671875 C 29.527344 30.660156 29.523438 30.644531 29.519531 30.632812 C 29.519531 30.621094 29.515625 30.609375 29.507812 30.59375 C 29.5 30.570312 29.496094 30.546875 29.488281 30.519531 C 29.484375 30.496094 29.476562 30.46875 29.472656 30.445312 C 29.46875 30.417969 29.460938 30.394531 29.453125 30.371094 C 29.433594 30.273438 29.414062 30.175781 29.398438 30.085938 C 29.378906 29.996094 29.363281 29.914062 29.351562 29.832031 C 29.339844 29.792969 29.332031 29.757812 29.328125 29.71875 C 29.324219 29.683594 29.316406 29.648438 29.3125 29.617188 C 29.308594 29.585938 29.304688 29.554688 29.300781 29.527344 C 29.296875 29.5 29.292969 29.476562 29.292969 29.449219 C 29.289062 29.441406 29.289062 29.429688 29.289062 29.417969 C 29.285156 29.410156 29.285156 29.394531 29.285156 29.390625 C 29.285156 29.371094 29.28125 29.355469 29.28125 29.34375 C 29.28125 29.316406 29.28125 29.304688 29.28125 29.304688 C 29.28125 29.304688 29.285156 29.316406 29.285156 29.34375 C 29.289062 29.355469 29.292969 29.371094 29.292969 29.386719 C 29.296875 29.394531 29.296875 29.40625 29.300781 29.414062 C 29.300781 29.429688 29.300781 29.4375 29.304688 29.449219 C 29.308594 29.472656 29.316406 29.5 29.320312 29.523438 C 29.328125 29.550781 29.332031 29.582031 29.339844 29.613281 C 29.351562 29.644531 29.355469 29.679688 29.367188 29.714844 C 29.375 29.746094 29.386719 29.785156 29.394531 29.824219 C 29.414062 29.898438 29.4375 29.980469 29.464844 30.070312 C 29.492188 30.160156 29.519531 30.25 29.546875 30.34375 C 29.554688 30.367188 29.566406 30.390625 29.570312 30.414062 C 29.582031 30.441406 29.585938 30.460938 29.597656 30.488281 C 29.605469 30.511719 29.613281 30.535156 29.621094 30.558594 C 29.625 30.570312 29.632812 30.582031 29.632812 30.59375 C 29.640625 30.605469 29.644531 30.617188 29.652344 30.628906 C 29.683594 30.722656 29.734375 30.8125 29.796875 30.882812 C 29.828125 30.921875 29.863281 30.953125 29.894531 30.980469 C 29.933594 31.007812 29.976562 31.027344 30.015625 31.042969 C 30.035156 31.046875 30.054688 31.054688 30.078125 31.058594 L 30.09375 31.0625 L 30.109375 31.0625 C 30.117188 31.0625 30.128906 31.0625 30.136719 31.0625 C 30.140625 31.0625 30.144531 31.0625 30.144531 31.0625 L 30.207031 31.0625 C 30.230469 31.0625 30.257812 31.0625 30.28125 31.0625 C 30.480469 31.050781 30.667969 31.042969 30.828125 31.035156 C 30.917969 31.03125 31 31.027344 31.074219 31.027344 C 30.941406 30.777344 30.804688 30.476562 30.640625 30.144531 C 30.144531 29.132812 30.023438 29.105469 29.464844 29.105469 L 28.539062 29.105469 C 28.539062 29.199219 28.464844 29.273438 28.375 29.273438 L 28.167969 29.273438 L 28.167969 31.496094 L 31.277344 31.496094 C 31.480469 31.757812 31.710938 31.902344 32.035156 31.902344 L 39.28125 31.902344 C 39.347656 31.902344 39.40625 31.894531 39.460938 31.878906 L 39.464844 31.878906 C 39.558594 31.855469 39.640625 31.804688 39.714844 31.730469 C 39.839844 31.996094 39.820312 32.519531 39.617188 32.882812 C 39.378906 33.324219 39.101562 33.640625 38.859375 33.640625 C 38.128906 33.640625 33.144531 34.070312 32.609375 34.070312 C 32.46875 34.007812 32.347656 33.886719 32.242188 33.742188 C 32 33.425781 31.824219 32.976562 31.675781 32.726562 C 31.453125 32.363281 31.011719 32.242188 30.78125 31.75 L 28.167969 31.75 L 28.167969 32.453125 C 28.167969 32.542969 28.09375 32.617188 28.003906 32.617188 C 28 32.617188 27.914062 32.621094 27.914062 32.792969 Z M 25.160156 34.523438 C 25.304688 35.355469 25.367188 36.164062 25.375 36.640625 C 25.375 36.816406 25.375 36.984375 25.378906 37.148438 C 25.382812 37.59375 25.390625 38.050781 25.421875 38.199219 C 25.429688 38.199219 25.441406 38.207031 25.457031 38.214844 C 25.675781 38.308594 26.339844 38.59375 26.703125 38.632812 C 27 38.667969 27.398438 38.546875 27.585938 38.484375 L 27.585938 36.167969 L 25.988281 35.496094 C 25.953125 35.480469 25.921875 35.449219 25.90625 35.410156 L 25.257812 33.941406 C 25.253906 33.9375 25.253906 33.929688 25.25 33.925781 L 25.25 33.921875 C 25.25 33.921875 25.246094 33.917969 25.246094 33.914062 C 25.246094 33.910156 25.246094 33.90625 25.242188 33.90625 L 25.042969 33.957031 C 25.089844 34.160156 25.125 34.351562 25.160156 34.523438 Z M 25.570312 33.707031 L 27.585938 33.707031 L 27.585938 32.949219 L 26.214844 32.949219 C 26.121094 32.949219 26.050781 32.875 26.050781 32.785156 C 26.050781 31.664062 25.652344 30.523438 24.800781 29.199219 L 24.105469 29.179688 C 24.167969 29.234375 24.226562 29.296875 24.277344 29.363281 C 24.542969 29.671875 24.78125 30.105469 24.988281 30.652344 C 25.328125 31.558594 25.546875 32.714844 25.570312 33.707031 Z M 23.984375 38.121094 C 24.226562 38.121094 24.578125 37.417969 24.578125 36.363281 C 24.578125 34.558594 23.792969 34.039062 23.703125 34.039062 C 23.613281 34.039062 23.140625 34.125 23.109375 34.75 C 23.144531 34.726562 23.183594 34.71875 23.226562 34.71875 C 23.375 34.71875 23.515625 34.871094 23.613281 35.15625 C 23.707031 35.417969 23.757812 35.765625 23.757812 36.132812 C 23.757812 36.507812 23.707031 36.855469 23.613281 37.117188 C 23.542969 37.316406 23.457031 37.449219 23.359375 37.511719 C 23.40625 37.820312 23.757812 38.121094 23.984375 38.121094 Z M 23.226562 37.5 C 23.488281 37.5 23.703125 36.890625 23.703125 36.132812 C 23.703125 35.382812 23.488281 34.773438 23.226562 34.773438 C 22.960938 34.773438 22.746094 35.382812 22.746094 36.132812 C 22.746094 36.890625 22.960938 37.5 23.226562 37.5 Z M 23.160156 28.832031 C 23.183594 28.8125 23.210938 28.800781 23.246094 28.800781 C 23.339844 28.800781 23.429688 28.816406 23.515625 28.835938 L 24.808594 28.867188 L 28.003906 28.941406 L 28.210938 28.941406 L 28.210938 25.792969 C 28.199219 25.515625 28.011719 19.851562 28.011719 19.476562 C 28.011719 19.316406 27.941406 19.101562 27.78125 18.980469 C 27.671875 18.894531 27.535156 18.867188 27.382812 18.910156 C 27.375 18.910156 27.371094 18.910156 27.367188 18.914062 C 26.863281 19.03125 26.214844 19.214844 25.378906 19.476562 C 24.207031 19.847656 23.121094 20.234375 22.796875 20.355469 C 22.703125 21.59375 22.5625 23.628906 22.441406 25.414062 C 22.339844 26.972656 22.246094 28.339844 22.21875 28.808594 Z M 22.113281 25.394531 C 22.292969 22.777344 22.511719 19.617188 22.5625 19.214844 L 22.5625 19.203125 C 22.609375 18.851562 22.648438 18.550781 22.726562 18.296875 C 22.828125 17.988281 22.984375 17.792969 23.210938 17.683594 C 23.449219 17.566406 24.59375 17.089844 25.640625 16.667969 C 25.160156 16.726562 24.597656 16.792969 24.035156 16.855469 C 23.179688 16.945312 22.484375 17.003906 21.972656 17.035156 C 21.945312 17.035156 21.921875 17.035156 21.898438 17.035156 C 21.726562 17.046875 21.582031 17.050781 21.460938 17.050781 C 21.238281 17.054688 21.0625 17.234375 21.058594 17.453125 L 20.851562 30.375 C 20.851562 30.378906 20.851562 30.386719 20.851562 30.394531 C 20.851562 30.402344 20.757812 31.097656 21.089844 31.476562 C 21.210938 31.617188 21.367188 31.695312 21.570312 31.726562 L 21.570312 28.964844 C 21.570312 28.878906 21.644531 28.800781 21.734375 28.800781 L 21.886719 28.800781 C 21.917969 28.339844 22.011719 26.964844 22.113281 25.394531 Z M 17.582031 32.234375 C 17.667969 32.746094 17.707031 33.320312 17.699219 33.621094 C 17.699219 33.671875 17.695312 33.726562 17.691406 33.773438 C 17.675781 34.207031 17.671875 34.339844 18 34.488281 L 21.929688 36.222656 L 21.929688 33.003906 C 21.929688 32.996094 21.929688 32.992188 21.933594 32.984375 C 21.949219 32.847656 21.976562 32.71875 22.007812 32.59375 C 21.117188 32.40625 18.234375 31.792969 17.433594 31.605469 C 17.488281 31.78125 17.535156 31.992188 17.582031 32.234375 Z M 16.511719 33.761719 C 16.523438 33.898438 16.539062 34.035156 16.5625 34.167969 C 16.570312 34.203125 16.574219 34.234375 16.582031 34.269531 C 16.589844 34.300781 16.59375 34.332031 16.601562 34.367188 C 16.617188 34.429688 16.632812 34.492188 16.652344 34.554688 C 16.691406 34.679688 16.734375 34.800781 16.789062 34.90625 C 16.820312 34.960938 16.847656 35.011719 16.882812 35.058594 C 16.917969 35.105469 16.957031 35.152344 17.003906 35.183594 C 17.046875 35.21875 17.101562 35.25 17.15625 35.253906 C 17.164062 35.253906 17.171875 35.253906 17.179688 35.253906 L 17.203125 35.253906 C 17.214844 35.253906 17.222656 35.253906 17.238281 35.25 C 17.246094 35.246094 17.253906 35.246094 17.257812 35.242188 C 17.265625 35.242188 17.269531 35.238281 17.273438 35.238281 C 17.28125 35.238281 17.285156 35.234375 17.292969 35.230469 C 17.296875 35.226562 17.304688 35.222656 17.308594 35.21875 C 17.351562 35.199219 17.378906 35.171875 17.402344 35.140625 C 17.429688 35.113281 17.449219 35.085938 17.460938 35.054688 C 17.492188 35.003906 17.511719 34.960938 17.523438 34.933594 C 17.527344 34.917969 17.535156 34.90625 17.535156 34.898438 C 17.527344 34.90625 17.523438 34.914062 17.511719 34.925781 C 17.496094 34.953125 17.472656 34.988281 17.433594 35.035156 C 17.414062 35.054688 17.390625 35.082031 17.367188 35.101562 C 17.339844 35.121094 17.308594 35.144531 17.277344 35.15625 C 17.269531 35.160156 17.257812 35.164062 17.253906 35.164062 C 17.246094 35.167969 17.242188 35.167969 17.238281 35.167969 C 17.234375 35.167969 17.230469 35.167969 17.226562 35.171875 C 17.222656 35.171875 17.207031 35.171875 17.199219 35.171875 L 17.195312 35.171875 L 17.191406 35.167969 L 17.1875 35.167969 C 17.183594 35.167969 17.175781 35.167969 17.171875 35.164062 C 17.136719 35.15625 17.105469 35.136719 17.070312 35.101562 C 17.039062 35.074219 17.011719 35.035156 16.984375 34.988281 C 16.960938 34.949219 16.9375 34.898438 16.917969 34.847656 C 16.875 34.746094 16.839844 34.632812 16.8125 34.511719 C 16.796875 34.453125 16.785156 34.390625 16.769531 34.328125 C 16.769531 34.296875 16.761719 34.265625 16.753906 34.234375 C 16.75 34.203125 16.746094 34.171875 16.742188 34.136719 C 16.71875 34.007812 16.707031 33.878906 16.699219 33.746094 C 16.6875 33.613281 16.679688 33.480469 16.675781 33.351562 C 16.675781 33.335938 16.675781 33.320312 16.675781 33.304688 C 16.675781 33.285156 16.675781 33.269531 16.675781 33.253906 C 16.675781 33.222656 16.671875 33.191406 16.671875 33.15625 C 16.675781 33.09375 16.675781 33.027344 16.675781 32.96875 C 16.675781 32.90625 16.683594 32.84375 16.683594 32.785156 C 16.6875 32.722656 16.691406 32.664062 16.695312 32.609375 C 16.699219 32.550781 16.707031 32.496094 16.710938 32.441406 C 16.71875 32.390625 16.722656 32.335938 16.730469 32.289062 C 16.742188 32.1875 16.757812 32.097656 16.773438 32.019531 C 16.777344 31.996094 16.785156 31.976562 16.789062 31.960938 C 16.789062 31.941406 16.796875 31.925781 16.800781 31.90625 C 16.804688 31.890625 16.804688 31.875 16.8125 31.859375 C 16.816406 31.84375 16.820312 31.828125 16.824219 31.8125 C 16.832031 31.785156 16.839844 31.761719 16.847656 31.738281 C 16.851562 31.726562 16.851562 31.714844 16.855469 31.707031 C 16.859375 31.699219 16.863281 31.691406 16.867188 31.683594 C 16.875 31.652344 16.882812 31.636719 16.882812 31.636719 C 16.882812 31.636719 16.871094 31.652344 16.855469 31.675781 C 16.851562 31.683594 16.847656 31.691406 16.839844 31.699219 C 16.839844 31.710938 16.832031 31.71875 16.824219 31.726562 C 16.820312 31.738281 16.816406 31.75 16.804688 31.761719 C 16.800781 31.773438 16.796875 31.785156 16.789062 31.800781 C 16.785156 31.8125 16.773438 31.828125 16.769531 31.84375 C 16.761719 31.859375 16.753906 31.875 16.75 31.890625 C 16.734375 31.925781 16.71875 31.960938 16.707031 31.996094 C 16.699219 32.019531 16.691406 32.039062 16.6875 32.058594 C 16.675781 32.078125 16.671875 32.101562 16.664062 32.125 C 16.652344 32.167969 16.636719 32.214844 16.621094 32.265625 C 16.609375 32.316406 16.601562 32.367188 16.589844 32.421875 C 16.574219 32.476562 16.566406 32.53125 16.554688 32.589844 C 16.546875 32.648438 16.539062 32.707031 16.53125 32.769531 C 16.523438 32.832031 16.519531 32.894531 16.511719 32.960938 C 16.503906 33.085938 16.496094 33.21875 16.496094 33.355469 C 16.496094 33.488281 16.5 33.621094 16.511719 33.761719 Z M 12.863281 31.878906 L 15.121094 32.589844 C 15.1875 32.613281 15.234375 32.675781 15.238281 32.742188 C 15.238281 32.753906 15.242188 32.960938 15.238281 33.277344 C 15.300781 33.308594 15.375 33.339844 15.453125 33.371094 C 15.457031 33.375 15.460938 33.375 15.464844 33.378906 C 15.46875 33.378906 15.472656 33.382812 15.472656 33.386719 C 15.519531 33.40625 15.566406 33.425781 15.621094 33.449219 L 15.621094 33.371094 C 15.597656 33.378906 15.574219 33.390625 15.542969 33.390625 C 15.523438 33.390625 15.5 33.382812 15.480469 33.371094 C 15.472656 33.371094 15.472656 33.371094 15.46875 33.371094 C 15.414062 33.34375 15.378906 33.289062 15.378906 33.222656 L 15.378906 31.023438 L 15.246094 31.054688 L 15.246094 31.609375 C 15.246094 31.660156 15.226562 31.707031 15.183594 31.738281 C 15.144531 31.765625 15.089844 31.777344 15.042969 31.765625 L 12.847656 31.238281 C 12.828125 31.464844 12.820312 31.734375 12.863281 31.878906 Z M 11.773438 33.023438 C 11.820312 33.046875 11.875 33.070312 11.929688 33.070312 C 11.9375 33.070312 11.945312 33.070312 11.949219 33.078125 L 11.964844 33.070312 L 11.976562 33.070312 C 11.984375 33.070312 11.996094 33.070312 12.011719 33.070312 C 12.015625 33.070312 12.023438 33.066406 12.03125 33.066406 C 12.035156 33.0625 12.042969 33.0625 12.046875 33.058594 C 12.054688 33.058594 12.058594 33.058594 12.0625 33.054688 C 12.070312 33.054688 12.078125 33.050781 12.082031 33.050781 C 12.09375 33.042969 12.101562 33.039062 12.117188 33.03125 L 12.117188 32.972656 C 12.09375 32.984375 12.074219 32.992188 12.046875 33 C 12.042969 33.003906 12.03125 33.007812 12.023438 33.007812 C 12.019531 33.007812 12.015625 33.007812 12.011719 33.007812 C 12.007812 33.007812 12.003906 33.007812 11.996094 33.007812 C 11.996094 33.007812 11.976562 33.007812 11.96875 33.007812 L 11.960938 33.007812 C 11.953125 33.007812 11.949219 33.007812 11.945312 33.007812 C 11.910156 33 11.878906 32.984375 11.84375 32.960938 C 11.832031 32.953125 11.824219 32.945312 11.816406 32.9375 L 11.664062 32.9375 C 11.699219 32.96875 11.730469 33 11.773438 33.023438 Z M 10.792969 32.191406 C 10.820312 32.261719 10.855469 32.332031 10.898438 32.394531 C 10.917969 32.421875 10.933594 32.441406 10.960938 32.464844 L 10.960938 32.277344 C 10.945312 32.246094 10.933594 32.21875 10.925781 32.1875 C 10.917969 32.179688 10.902344 32.179688 10.894531 32.179688 L 10.785156 32.179688 C 10.789062 32.179688 10.789062 32.183594 10.792969 32.191406 Z M 10.792969 32.191406 "/></g><path style=" stroke:none;fill-rule:nonzero;fill:#fffbec;fill-opacity:1;" d="M 30.699219 28.042969 C 30.710938 28.042969 30.730469 28.039062 30.746094 28.035156 C 30.816406 28.027344 30.917969 28.011719 31.046875 28 C 31.179688 27.980469 31.339844 27.964844 31.523438 27.953125 C 31.613281 27.941406 31.710938 27.933594 31.8125 27.925781 C 31.914062 27.917969 32.023438 27.910156 32.132812 27.902344 C 32.246094 27.890625 32.363281 27.882812 32.484375 27.875 C 32.605469 27.867188 32.730469 27.855469 32.859375 27.847656 C 33.117188 27.832031 33.390625 27.816406 33.671875 27.800781 C 33.8125 27.792969 33.957031 27.785156 34.101562 27.78125 C 34.242188 27.773438 34.394531 27.769531 34.539062 27.765625 C 34.835938 27.75 35.136719 27.742188 35.4375 27.738281 L 35.550781 27.738281 C 35.589844 27.738281 35.625 27.742188 35.664062 27.742188 C 35.703125 27.742188 35.738281 27.746094 35.777344 27.746094 C 35.816406 27.746094 35.851562 27.746094 35.886719 27.75 C 36.039062 27.75 36.1875 27.75 36.335938 27.753906 C 36.484375 27.753906 36.628906 27.757812 36.773438 27.761719 C 36.917969 27.765625 37.0625 27.769531 37.203125 27.769531 C 37.34375 27.773438 37.484375 27.777344 37.617188 27.785156 C 37.75 27.785156 37.886719 27.792969 38.015625 27.800781 C 38.144531 27.804688 38.269531 27.8125 38.390625 27.820312 C 38.511719 27.824219 38.628906 27.832031 38.742188 27.835938 C 38.800781 27.839844 38.851562 27.847656 38.90625 27.847656 C 38.960938 27.851562 39.015625 27.855469 39.066406 27.863281 C 39.164062 27.867188 39.265625 27.878906 39.355469 27.882812 C 39.539062 27.902344 39.699219 27.917969 39.828125 27.929688 C 39.894531 27.933594 39.949219 27.945312 40 27.953125 C 40.050781 27.957031 40.097656 27.960938 40.132812 27.964844 C 40.199219 27.972656 40.238281 27.980469 40.238281 27.980469 C 40.238281 27.980469 40.199219 27.976562 40.132812 27.976562 C 40.0625 27.972656 39.957031 27.96875 39.824219 27.964844 C 39.695312 27.964844 39.535156 27.960938 39.351562 27.957031 C 39.261719 27.953125 39.164062 27.953125 39.0625 27.953125 C 38.957031 27.949219 38.851562 27.949219 38.738281 27.945312 C 38.515625 27.941406 38.265625 27.941406 38.011719 27.9375 C 37.753906 27.933594 37.484375 27.933594 37.203125 27.933594 C 36.917969 27.933594 36.628906 27.933594 36.332031 27.933594 C 36.257812 27.933594 36.1875 27.933594 36.109375 27.933594 C 36.074219 27.933594 36.039062 27.933594 36 27.933594 C 35.960938 27.929688 35.921875 27.929688 35.886719 27.929688 C 35.847656 27.929688 35.808594 27.929688 35.773438 27.929688 C 35.738281 27.929688 35.699219 27.929688 35.660156 27.929688 C 35.621094 27.929688 35.585938 27.925781 35.550781 27.925781 L 35.441406 27.925781 C 35.140625 27.929688 34.839844 27.9375 34.542969 27.945312 C 34.25 27.953125 33.960938 27.960938 33.675781 27.964844 C 33.394531 27.976562 33.125 27.980469 32.867188 27.988281 C 32.609375 27.996094 32.363281 28 32.140625 28.007812 C 31.914062 28.011719 31.710938 28.015625 31.527344 28.023438 C 31.34375 28.027344 31.183594 28.03125 31.050781 28.035156 C 30.921875 28.039062 30.816406 28.042969 30.746094 28.046875 C 30.710938 28.050781 30.683594 28.050781 30.667969 28.050781 C 30.652344 28.054688 30.644531 28.054688 30.640625 28.054688 C 30.644531 28.054688 30.648438 28.050781 30.664062 28.050781 C 30.675781 28.050781 30.6875 28.046875 30.699219 28.042969 Z M 30.699219 28.042969 "/><path style=" stroke:none;fill-rule:nonzero;fill:#fffbec;fill-opacity:1;" d="M 28.480469 21.417969 L 28.46875 21.179688 L 28.464844 21.085938 L 28.464844 20.941406 L 28.503906 21.414062 L 28.550781 21.890625 L 28.632812 22.835938 L 28.71875 23.777344 C 28.734375 23.9375 28.746094 24.09375 28.761719 24.25 L 28.773438 24.367188 C 28.773438 24.386719 28.777344 24.40625 28.78125 24.421875 L 28.785156 24.4375 L 28.785156 24.449219 C 28.785156 24.457031 28.785156 24.460938 28.789062 24.46875 C 28.800781 24.492188 28.816406 24.519531 28.835938 24.546875 C 28.855469 24.570312 28.882812 24.597656 28.910156 24.621094 C 29.015625 24.710938 29.152344 24.773438 29.289062 24.800781 C 29.308594 24.804688 29.324219 24.804688 29.339844 24.804688 C 29.351562 24.804688 29.355469 24.804688 29.367188 24.804688 C 29.367188 24.804688 29.367188 24.808594 29.371094 24.808594 L 29.75 24.808594 L 30.699219 24.8125 L 31.644531 24.820312 L 32.59375 24.828125 L 36.390625 24.875 L 38.289062 24.90625 L 39.992188 24.941406 C 39.988281 24.925781 39.984375 24.910156 39.984375 24.894531 C 39.972656 24.816406 39.960938 24.738281 39.949219 24.65625 C 39.9375 24.574219 39.921875 24.496094 39.910156 24.417969 L 39.867188 24.175781 L 39.828125 23.9375 L 39.78125 23.695312 L 39.734375 23.457031 C 39.71875 23.375 39.703125 23.296875 39.683594 23.21875 C 39.667969 23.136719 39.652344 23.054688 39.636719 22.976562 C 39.617188 22.898438 39.601562 22.820312 39.582031 22.742188 C 39.566406 22.660156 39.546875 22.582031 39.53125 22.503906 L 39.5 22.382812 C 39.492188 22.34375 39.484375 22.308594 39.472656 22.265625 C 39.453125 22.1875 39.433594 22.109375 39.414062 22.03125 C 39.390625 21.953125 39.371094 21.875 39.347656 21.800781 C 39.324219 21.722656 39.300781 21.644531 39.277344 21.574219 L 39.257812 21.515625 L 39.234375 21.460938 C 39.234375 21.457031 39.234375 21.449219 39.234375 21.445312 L 38.636719 21.410156 L 37.941406 21.375 L 36.550781 21.296875 L 35.15625 21.214844 L 32.371094 21.035156 L 30.980469 20.941406 L 30.28125 20.894531 L 29.933594 20.863281 C 29.820312 20.859375 29.703125 20.847656 29.585938 20.839844 L 29.242188 20.808594 C 29.183594 20.808594 29.125 20.800781 29.066406 20.796875 C 29.007812 20.789062 28.949219 20.78125 28.890625 20.761719 C 28.863281 20.753906 28.835938 20.746094 28.804688 20.726562 C 28.78125 20.710938 28.757812 20.6875 28.738281 20.664062 C 28.71875 20.640625 28.703125 20.613281 28.6875 20.589844 C 28.671875 20.566406 28.660156 20.542969 28.644531 20.515625 C 28.617188 20.464844 28.585938 20.414062 28.554688 20.363281 C 28.527344 20.316406 28.496094 20.265625 28.464844 20.21875 C 28.5 20.265625 28.53125 20.3125 28.566406 20.359375 C 28.597656 20.410156 28.632812 20.457031 28.664062 20.503906 C 28.679688 20.53125 28.695312 20.554688 28.710938 20.578125 C 28.726562 20.601562 28.742188 20.625 28.761719 20.648438 C 28.78125 20.664062 28.800781 20.683594 28.824219 20.699219 C 28.847656 20.710938 28.875 20.71875 28.898438 20.726562 C 28.953125 20.742188 29.015625 20.746094 29.070312 20.746094 C 29.128906 20.75 29.183594 20.753906 29.246094 20.753906 L 29.59375 20.765625 L 30.984375 20.808594 L 32.378906 20.855469 L 35.167969 20.957031 L 37.957031 21.070312 L 39.351562 21.128906 L 39.449219 21.132812 L 39.488281 21.226562 C 39.503906 21.265625 39.523438 21.308594 39.539062 21.347656 L 39.5625 21.40625 L 39.582031 21.464844 C 39.609375 21.546875 39.632812 21.625 39.660156 21.707031 C 39.679688 21.765625 39.695312 21.828125 39.714844 21.886719 C 39.71875 21.90625 39.722656 21.925781 39.730469 21.945312 C 39.75 22.023438 39.773438 22.105469 39.792969 22.1875 C 39.800781 22.226562 39.8125 22.265625 39.824219 22.308594 L 39.851562 22.425781 C 39.871094 22.507812 39.890625 22.585938 39.910156 22.667969 C 39.929688 22.746094 39.945312 22.824219 39.964844 22.910156 C 39.980469 22.988281 40 23.070312 40.015625 23.148438 C 40.085938 23.472656 40.144531 23.792969 40.203125 24.117188 L 40.246094 24.359375 C 40.257812 24.441406 40.269531 24.519531 40.285156 24.605469 C 40.296875 24.6875 40.3125 24.765625 40.320312 24.851562 C 40.332031 24.933594 40.34375 25.011719 40.351562 25.101562 L 40.371094 25.289062 L 40.179688 25.289062 L 38.285156 25.246094 L 36.386719 25.203125 L 35.4375 25.175781 L 34.488281 25.152344 L 32.589844 25.097656 L 30.695312 25.035156 L 29.746094 25.007812 L 29.507812 25 L 29.386719 24.996094 L 29.375 24.992188 L 29.359375 24.992188 C 29.347656 24.992188 29.332031 24.992188 29.320312 24.988281 C 29.300781 24.988281 29.277344 24.984375 29.257812 24.980469 C 29.167969 24.960938 29.085938 24.933594 29.011719 24.890625 C 28.933594 24.851562 28.863281 24.804688 28.796875 24.742188 C 28.765625 24.714844 28.734375 24.683594 28.707031 24.644531 C 28.679688 24.609375 28.652344 24.566406 28.636719 24.519531 C 28.632812 24.507812 28.632812 24.492188 28.628906 24.480469 L 28.625 24.472656 C 28.625 24.46875 28.625 24.464844 28.625 24.464844 L 28.625 24.445312 C 28.621094 24.421875 28.617188 24.40625 28.617188 24.386719 L 28.609375 24.261719 C 28.597656 24.105469 28.589844 23.945312 28.585938 23.789062 C 28.570312 23.472656 28.550781 23.160156 28.535156 22.839844 C 28.523438 22.527344 28.511719 22.210938 28.5 21.890625 Z M 28.480469 21.417969 "/><path style="fill:none;stroke-width:2;stroke-linecap:butt;stroke-linejoin:miter;stroke:#ab080d;stroke-opacity:1;stroke-miterlimit:4;" d="M 0.0015704 1.001453 L 62.572423 1.001453 " transform="matrix(0.744718,0,0,0.744718,2.393362,52.355762)"/><path style="fill:none;stroke-width:2;stroke-linecap:butt;stroke-linejoin:miter;stroke:#ab080d;stroke-opacity:1;stroke-miterlimit:4;" d="M 0.0015704 1.001144 L 62.572423 1.001144 " transform="matrix(0.744718,0,0,0.744718,2.393362,63.988805)"/><g transform="matrix(1,0,0,1,11,52)"><g clip-path="url(#7100b44ce7)"><g clip-rule="nonzero" clip-path="url(#cb4035d44e)"><g style="fill:#ab080d;fill-opacity:1;"><g transform="translate(0.385117, 10.191393)"><path style="stroke:none" d="M 7.921875 -6.5 L 7.921875 0 L 6.34375 0 L 6.34375 -3.890625 L 4.890625 0 L 3.609375 0 L 2.15625 -3.90625 L 2.15625 0 L 0.578125 0 L 0.578125 -6.5 L 2.4375 -6.5 L 4.265625 -2 L 6.0625 -6.5 Z M 7.921875 -6.5 "/></g></g></g><g style="fill:#ab080d;fill-opacity:1;"><g transform="translate(12.568856, 10.191393)"><path style="stroke:none" d="M 2.921875 0.0625 C 2.441406 0.0625 2.015625 -0.0078125 1.640625 -0.15625 C 1.265625 -0.3125 0.960938 -0.539062 0.734375 -0.84375 C 0.515625 -1.144531 0.398438 -1.507812 0.390625 -1.9375 L 2.078125 -1.9375 C 2.097656 -1.695312 2.175781 -1.515625 2.3125 -1.390625 C 2.457031 -1.265625 2.644531 -1.203125 2.875 -1.203125 C 3.113281 -1.203125 3.300781 -1.253906 3.4375 -1.359375 C 3.570312 -1.472656 3.640625 -1.625 3.640625 -1.8125 C 3.640625 -1.96875 3.582031 -2.097656 3.46875 -2.203125 C 3.363281 -2.316406 3.234375 -2.40625 3.078125 -2.46875 C 2.921875 -2.539062 2.695312 -2.617188 2.40625 -2.703125 C 1.988281 -2.828125 1.644531 -2.953125 1.375 -3.078125 C 1.113281 -3.210938 0.882812 -3.40625 0.6875 -3.65625 C 0.5 -3.914062 0.40625 -4.25 0.40625 -4.65625 C 0.40625 -5.257812 0.625 -5.734375 1.0625 -6.078125 C 1.5 -6.421875 2.070312 -6.59375 2.78125 -6.59375 C 3.488281 -6.59375 4.0625 -6.421875 4.5 -6.078125 C 4.9375 -5.734375 5.171875 -5.253906 5.203125 -4.640625 L 3.5 -4.640625 C 3.488281 -4.847656 3.410156 -5.007812 3.265625 -5.125 C 3.117188 -5.25 2.9375 -5.3125 2.71875 -5.3125 C 2.53125 -5.3125 2.375 -5.257812 2.25 -5.15625 C 2.132812 -5.0625 2.078125 -4.921875 2.078125 -4.734375 C 2.078125 -4.515625 2.175781 -4.347656 2.375 -4.234375 C 2.570312 -4.117188 2.878906 -3.992188 3.296875 -3.859375 C 3.722656 -3.710938 4.066406 -3.570312 4.328125 -3.4375 C 4.585938 -3.3125 4.8125 -3.125 5 -2.875 C 5.195312 -2.632812 5.296875 -2.320312 5.296875 -1.9375 C 5.296875 -1.5625 5.203125 -1.222656 5.015625 -0.921875 C 4.828125 -0.617188 4.550781 -0.378906 4.1875 -0.203125 C 3.832031 -0.0234375 3.410156 0.0625 2.921875 0.0625 Z M 2.921875 0.0625 "/></g></g><g style="fill:#ab080d;fill-opacity:1;"><g transform="translate(21.951629, 10.191393)"><path style="stroke:none" d="M 0.3125 -3.25 C 0.3125 -3.894531 0.445312 -4.46875 0.71875 -4.96875 C 1 -5.46875 1.382812 -5.859375 1.875 -6.140625 C 2.375 -6.421875 2.941406 -6.5625 3.578125 -6.5625 C 4.347656 -6.5625 5.003906 -6.359375 5.546875 -5.953125 C 6.097656 -5.546875 6.46875 -4.992188 6.65625 -4.296875 L 4.90625 -4.296875 C 4.78125 -4.566406 4.597656 -4.769531 4.359375 -4.90625 C 4.117188 -5.050781 3.847656 -5.125 3.546875 -5.125 C 3.066406 -5.125 2.675781 -4.953125 2.375 -4.609375 C 2.070312 -4.273438 1.921875 -3.820312 1.921875 -3.25 C 1.921875 -2.6875 2.070312 -2.234375 2.375 -1.890625 C 2.675781 -1.554688 3.066406 -1.390625 3.546875 -1.390625 C 3.847656 -1.390625 4.117188 -1.457031 4.359375 -1.59375 C 4.597656 -1.738281 4.78125 -1.945312 4.90625 -2.21875 L 6.65625 -2.21875 C 6.46875 -1.519531 6.097656 -0.96875 5.546875 -0.5625 C 5.003906 -0.15625 4.347656 0.046875 3.578125 0.046875 C 2.941406 0.046875 2.375 -0.09375 1.875 -0.375 C 1.382812 -0.65625 1 -1.046875 0.71875 -1.546875 C 0.445312 -2.046875 0.3125 -2.613281 0.3125 -3.25 Z M 0.3125 -3.25 "/></g></g></g></g></g></svg>