<svg xmlns="http://www.w3.org/2000/svg" xmlns:xlink="http://www.w3.org/1999/xlink" width="490" zoomAndPan="magnify" viewBox="0 0 367.5 368.999991" height="492" preserveAspectRatio="xMidYMid meet" version="1.2"><defs><clipPath id="f8e0c67da3"><path d="M 0 0.25 L 367 0.25 L 367 368.75 L 0 368.75 Z M 0 0.25 "/></clipPath><clipPath id="4140ad90d2"><path d="M 0 0.25 L 366.835938 0.25 L 366.835938 368.519531 L 0 368.519531 Z M 0 0.25 "/></clipPath><clipPath id="96f70c26f5"><path d="M 17.226562 0.25 L 349.609375 0.25 C 359.121094 0.25 366.835938 7.964844 366.835938 17.476562 L 366.835938 351.183594 C 366.835938 360.695312 359.121094 368.410156 349.609375 368.410156 L 17.226562 368.410156 C 7.710938 368.410156 0 360.695312 0 351.183594 L 0 17.476562 C 0 7.964844 7.710938 0.25 17.226562 0.25 Z M 17.226562 0.25 "/></clipPath><clipPath id="cdb2da759c"><path d="M 0 0.25 L 366.835938 0.25 L 366.835938 368.519531 L 0 368.519531 Z M 0 0.25 "/></clipPath><clipPath id="4b1d278660"><path d="M 17.226562 0.25 L 349.609375 0.25 C 359.121094 0.25 366.835938 7.964844 366.835938 17.476562 L 366.835938 351.183594 C 366.835938 360.695312 359.121094 368.410156 349.609375 368.410156 L 17.226562 368.410156 C 7.710938 368.410156 0 360.695312 0 351.183594 L 0 17.476562 C 0 7.964844 7.710938 0.25 17.226562 0.25 Z M 17.226562 0.25 "/></clipPath><clipPath id="14719b6f4d"><rect x="0" width="367" y="0" height="369"/></clipPath><clipPath id="8f5ff88fbb"><rect x="0" width="367" y="0" height="369"/></clipPath></defs><g id="7d39df079f"><g clip-rule="nonzero" clip-path="url(#f8e0c67da3)"><g transform="matrix(1,0,0,1,0,0.000000000000022704)"><g clip-path="url(#8f5ff88fbb)"><g clip-rule="nonzero" clip-path="url(#4140ad90d2)"><g clip-rule="nonzero" clip-path="url(#96f70c26f5)"><g transform="matrix(1,0,0,1,0,0.000000000000022704)"><g id="36ee228b40" clip-path="url(#14719b6f4d)"><g clip-rule="nonzero" clip-path="url(#cdb2da759c)"><g clip-rule="nonzero" clip-path="url(#4b1d278660)"><path style=" stroke:none;fill-rule:nonzero;fill:#ffffff;fill-opacity:1;" d="M 0 0.25 L 366.835938 0.25 L 366.835938 368.519531 L 0 368.519531 Z M 0 0.25 "/></g></g></g></g></g></g><path style="fill:none;stroke-width:32;stroke-linecap:round;stroke-linejoin:round;stroke:#000000;stroke-opacity:1;stroke-miterlimit:4;" d="M 207.998675 127.999742 L 127.998843 207.999561 " transform="matrix(1.432474,0,0,1.432474,23.320804,22.444485)"/><path style="fill:none;stroke-width:32;stroke-linecap:round;stroke-linejoin:round;stroke:#000000;stroke-opacity:1;stroke-miterlimit:4;" d="M 191.9998 39.999123 L 40.000937 192.000688 " transform="matrix(1.432474,0,0,1.432474,23.320804,22.444485)"/></g></g></g></g></svg>